<mxfile host="app.diagrams.net" modified="2020-08-08T16:59:44.783Z" agent="5.0 (Windows NT 6.1; Win64; x64) AppleWebKit/537.36 (KHTML, like Gecko) Chrome/84.0.4147.105 Safari/537.36" etag="KRPvBEoHtdunFrHyhaYk" version="13.6.1" type="github" pages="2">
  <diagram id="R2lEEEUBdFMjLlhIrx00" name="Page-1">
    <mxGraphModel dx="868" dy="401" grid="1" gridSize="10" guides="1" tooltips="1" connect="1" arrows="1" fold="1" page="1" pageScale="1" pageWidth="850" pageHeight="1100" math="0" shadow="0" extFonts="Permanent Marker^https://fonts.googleapis.com/css?family=Permanent+Marker">
      <root>
        <mxCell id="0" />
        <mxCell id="1" parent="0" />
        <mxCell id="C-vyLk0tnHw3VtMMgP7b-1" value="" style="edgeStyle=entityRelationEdgeStyle;endArrow=ERzeroToMany;startArrow=ERone;endFill=1;startFill=0;" parent="1" source="C-vyLk0tnHw3VtMMgP7b-24" target="C-vyLk0tnHw3VtMMgP7b-6" edge="1">
          <mxGeometry width="100" height="100" relative="1" as="geometry">
            <mxPoint x="340" y="720" as="sourcePoint" />
            <mxPoint x="440" y="620" as="targetPoint" />
          </mxGeometry>
        </mxCell>
        <mxCell id="C-vyLk0tnHw3VtMMgP7b-12" value="" style="edgeStyle=entityRelationEdgeStyle;endArrow=ERzeroToMany;startArrow=ERone;endFill=1;startFill=0;" parent="1" source="C-vyLk0tnHw3VtMMgP7b-3" target="C-vyLk0tnHw3VtMMgP7b-17" edge="1">
          <mxGeometry width="100" height="100" relative="1" as="geometry">
            <mxPoint x="400" y="180" as="sourcePoint" />
            <mxPoint x="460" y="205" as="targetPoint" />
          </mxGeometry>
        </mxCell>
        <mxCell id="C-vyLk0tnHw3VtMMgP7b-2" value="PRODUCTO" style="shape=table;startSize=30;container=1;collapsible=1;childLayout=tableLayout;fixedRows=1;rowLines=0;fontStyle=1;align=center;resizeLast=1;" parent="1" vertex="1">
          <mxGeometry x="450" y="120" width="250" height="130" as="geometry" />
        </mxCell>
        <mxCell id="C-vyLk0tnHw3VtMMgP7b-3" value="" style="shape=partialRectangle;collapsible=0;dropTarget=0;pointerEvents=0;fillColor=none;points=[[0,0.5],[1,0.5]];portConstraint=eastwest;top=0;left=0;right=0;bottom=1;" parent="C-vyLk0tnHw3VtMMgP7b-2" vertex="1">
          <mxGeometry y="30" width="250" height="30" as="geometry" />
        </mxCell>
        <mxCell id="C-vyLk0tnHw3VtMMgP7b-4" value="PK" style="shape=partialRectangle;overflow=hidden;connectable=0;fillColor=none;top=0;left=0;bottom=0;right=0;fontStyle=1;" parent="C-vyLk0tnHw3VtMMgP7b-3" vertex="1">
          <mxGeometry width="30" height="30" as="geometry" />
        </mxCell>
        <mxCell id="C-vyLk0tnHw3VtMMgP7b-5" value="order_id int NOT NULL " style="shape=partialRectangle;overflow=hidden;connectable=0;fillColor=none;top=0;left=0;bottom=0;right=0;align=left;spacingLeft=6;fontStyle=5;" parent="C-vyLk0tnHw3VtMMgP7b-3" vertex="1">
          <mxGeometry x="30" width="220" height="30" as="geometry" />
        </mxCell>
        <mxCell id="C-vyLk0tnHw3VtMMgP7b-6" value="" style="shape=partialRectangle;collapsible=0;dropTarget=0;pointerEvents=0;fillColor=none;points=[[0,0.5],[1,0.5]];portConstraint=eastwest;top=0;left=0;right=0;bottom=0;" parent="C-vyLk0tnHw3VtMMgP7b-2" vertex="1">
          <mxGeometry y="60" width="250" height="30" as="geometry" />
        </mxCell>
        <mxCell id="C-vyLk0tnHw3VtMMgP7b-7" value="FK1" style="shape=partialRectangle;overflow=hidden;connectable=0;fillColor=none;top=0;left=0;bottom=0;right=0;" parent="C-vyLk0tnHw3VtMMgP7b-6" vertex="1">
          <mxGeometry width="30" height="30" as="geometry" />
        </mxCell>
        <mxCell id="C-vyLk0tnHw3VtMMgP7b-8" value="customer_id int NOT NULL" style="shape=partialRectangle;overflow=hidden;connectable=0;fillColor=none;top=0;left=0;bottom=0;right=0;align=left;spacingLeft=6;" parent="C-vyLk0tnHw3VtMMgP7b-6" vertex="1">
          <mxGeometry x="30" width="220" height="30" as="geometry" />
        </mxCell>
        <mxCell id="C-vyLk0tnHw3VtMMgP7b-9" value="" style="shape=partialRectangle;collapsible=0;dropTarget=0;pointerEvents=0;fillColor=none;points=[[0,0.5],[1,0.5]];portConstraint=eastwest;top=0;left=0;right=0;bottom=0;" parent="C-vyLk0tnHw3VtMMgP7b-2" vertex="1">
          <mxGeometry y="90" width="250" height="30" as="geometry" />
        </mxCell>
        <mxCell id="C-vyLk0tnHw3VtMMgP7b-10" value="" style="shape=partialRectangle;overflow=hidden;connectable=0;fillColor=none;top=0;left=0;bottom=0;right=0;" parent="C-vyLk0tnHw3VtMMgP7b-9" vertex="1">
          <mxGeometry width="30" height="30" as="geometry" />
        </mxCell>
        <mxCell id="C-vyLk0tnHw3VtMMgP7b-11" value="order_date date NOT NULL" style="shape=partialRectangle;overflow=hidden;connectable=0;fillColor=none;top=0;left=0;bottom=0;right=0;align=left;spacingLeft=6;" parent="C-vyLk0tnHw3VtMMgP7b-9" vertex="1">
          <mxGeometry x="30" width="220" height="30" as="geometry" />
        </mxCell>
        <mxCell id="C-vyLk0tnHw3VtMMgP7b-13" value="Shipments" style="shape=table;startSize=30;container=1;collapsible=1;childLayout=tableLayout;fixedRows=1;rowLines=0;fontStyle=1;align=center;resizeLast=1;" parent="1" vertex="1">
          <mxGeometry x="450" y="280" width="250" height="130" as="geometry" />
        </mxCell>
        <mxCell id="C-vyLk0tnHw3VtMMgP7b-14" value="" style="shape=partialRectangle;collapsible=0;dropTarget=0;pointerEvents=0;fillColor=none;points=[[0,0.5],[1,0.5]];portConstraint=eastwest;top=0;left=0;right=0;bottom=1;" parent="C-vyLk0tnHw3VtMMgP7b-13" vertex="1">
          <mxGeometry y="30" width="250" height="30" as="geometry" />
        </mxCell>
        <mxCell id="C-vyLk0tnHw3VtMMgP7b-15" value="PK" style="shape=partialRectangle;overflow=hidden;connectable=0;fillColor=none;top=0;left=0;bottom=0;right=0;fontStyle=1;" parent="C-vyLk0tnHw3VtMMgP7b-14" vertex="1">
          <mxGeometry width="30" height="30" as="geometry" />
        </mxCell>
        <mxCell id="C-vyLk0tnHw3VtMMgP7b-16" value="shipment_id int NOT NULL " style="shape=partialRectangle;overflow=hidden;connectable=0;fillColor=none;top=0;left=0;bottom=0;right=0;align=left;spacingLeft=6;fontStyle=5;" parent="C-vyLk0tnHw3VtMMgP7b-14" vertex="1">
          <mxGeometry x="30" width="220" height="30" as="geometry" />
        </mxCell>
        <mxCell id="C-vyLk0tnHw3VtMMgP7b-17" value="" style="shape=partialRectangle;collapsible=0;dropTarget=0;pointerEvents=0;fillColor=none;points=[[0,0.5],[1,0.5]];portConstraint=eastwest;top=0;left=0;right=0;bottom=0;" parent="C-vyLk0tnHw3VtMMgP7b-13" vertex="1">
          <mxGeometry y="60" width="250" height="30" as="geometry" />
        </mxCell>
        <mxCell id="C-vyLk0tnHw3VtMMgP7b-18" value="FK1" style="shape=partialRectangle;overflow=hidden;connectable=0;fillColor=none;top=0;left=0;bottom=0;right=0;" parent="C-vyLk0tnHw3VtMMgP7b-17" vertex="1">
          <mxGeometry width="30" height="30" as="geometry" />
        </mxCell>
        <mxCell id="C-vyLk0tnHw3VtMMgP7b-19" value="order_id int NOT NULL" style="shape=partialRectangle;overflow=hidden;connectable=0;fillColor=none;top=0;left=0;bottom=0;right=0;align=left;spacingLeft=6;" parent="C-vyLk0tnHw3VtMMgP7b-17" vertex="1">
          <mxGeometry x="30" width="220" height="30" as="geometry" />
        </mxCell>
        <mxCell id="C-vyLk0tnHw3VtMMgP7b-20" value="" style="shape=partialRectangle;collapsible=0;dropTarget=0;pointerEvents=0;fillColor=none;points=[[0,0.5],[1,0.5]];portConstraint=eastwest;top=0;left=0;right=0;bottom=0;" parent="C-vyLk0tnHw3VtMMgP7b-13" vertex="1">
          <mxGeometry y="90" width="250" height="30" as="geometry" />
        </mxCell>
        <mxCell id="C-vyLk0tnHw3VtMMgP7b-21" value="" style="shape=partialRectangle;overflow=hidden;connectable=0;fillColor=none;top=0;left=0;bottom=0;right=0;" parent="C-vyLk0tnHw3VtMMgP7b-20" vertex="1">
          <mxGeometry width="30" height="30" as="geometry" />
        </mxCell>
        <mxCell id="C-vyLk0tnHw3VtMMgP7b-22" value="shipment_date date NOT NULL" style="shape=partialRectangle;overflow=hidden;connectable=0;fillColor=none;top=0;left=0;bottom=0;right=0;align=left;spacingLeft=6;" parent="C-vyLk0tnHw3VtMMgP7b-20" vertex="1">
          <mxGeometry x="30" width="220" height="30" as="geometry" />
        </mxCell>
        <mxCell id="C-vyLk0tnHw3VtMMgP7b-23" value="CLIENTE" style="shape=table;startSize=30;container=1;collapsible=1;childLayout=tableLayout;fixedRows=1;rowLines=0;fontStyle=1;align=center;resizeLast=1;" parent="1" vertex="1">
          <mxGeometry x="120" y="120" width="250" height="90" as="geometry" />
        </mxCell>
        <mxCell id="C-vyLk0tnHw3VtMMgP7b-24" value="" style="shape=partialRectangle;collapsible=0;dropTarget=0;pointerEvents=0;fillColor=none;points=[[0,0.5],[1,0.5]];portConstraint=eastwest;top=0;left=0;right=0;bottom=1;" parent="C-vyLk0tnHw3VtMMgP7b-23" vertex="1">
          <mxGeometry y="30" width="250" height="30" as="geometry" />
        </mxCell>
        <mxCell id="C-vyLk0tnHw3VtMMgP7b-25" value="PK" style="shape=partialRectangle;overflow=hidden;connectable=0;fillColor=none;top=0;left=0;bottom=0;right=0;fontStyle=1;" parent="C-vyLk0tnHw3VtMMgP7b-24" vertex="1">
          <mxGeometry width="30" height="30" as="geometry" />
        </mxCell>
        <mxCell id="C-vyLk0tnHw3VtMMgP7b-26" value="customer_id int NOT NULL " style="shape=partialRectangle;overflow=hidden;connectable=0;fillColor=none;top=0;left=0;bottom=0;right=0;align=left;spacingLeft=6;fontStyle=5;" parent="C-vyLk0tnHw3VtMMgP7b-24" vertex="1">
          <mxGeometry x="30" width="220" height="30" as="geometry" />
        </mxCell>
        <mxCell id="C-vyLk0tnHw3VtMMgP7b-27" value="" style="shape=partialRectangle;collapsible=0;dropTarget=0;pointerEvents=0;fillColor=none;points=[[0,0.5],[1,0.5]];portConstraint=eastwest;top=0;left=0;right=0;bottom=0;" parent="C-vyLk0tnHw3VtMMgP7b-23" vertex="1">
          <mxGeometry y="60" width="250" height="30" as="geometry" />
        </mxCell>
        <mxCell id="C-vyLk0tnHw3VtMMgP7b-28" value="" style="shape=partialRectangle;overflow=hidden;connectable=0;fillColor=none;top=0;left=0;bottom=0;right=0;" parent="C-vyLk0tnHw3VtMMgP7b-27" vertex="1">
          <mxGeometry width="30" height="30" as="geometry" />
        </mxCell>
        <mxCell id="C-vyLk0tnHw3VtMMgP7b-29" value="customer_name char(50) NOT NULL" style="shape=partialRectangle;overflow=hidden;connectable=0;fillColor=none;top=0;left=0;bottom=0;right=0;align=left;spacingLeft=6;" parent="C-vyLk0tnHw3VtMMgP7b-27" vertex="1">
          <mxGeometry x="30" width="220" height="30" as="geometry" />
        </mxCell>
        <mxCell id="RCedNo-r4ZSikWVJdYWe-7" value="" style="edgeStyle=orthogonalEdgeStyle;rounded=0;orthogonalLoop=1;jettySize=auto;html=1;entryX=0.5;entryY=0;entryDx=0;entryDy=0;" parent="1" source="RCedNo-r4ZSikWVJdYWe-1" target="C-vyLk0tnHw3VtMMgP7b-23" edge="1">
          <mxGeometry relative="1" as="geometry" />
        </mxCell>
        <mxCell id="RCedNo-r4ZSikWVJdYWe-1" value="Nombre" style="ellipse;whiteSpace=wrap;html=1;" parent="1" vertex="1">
          <mxGeometry x="280" width="120" height="80" as="geometry" />
        </mxCell>
        <mxCell id="RCedNo-r4ZSikWVJdYWe-9" value="" style="edgeStyle=orthogonalEdgeStyle;rounded=0;orthogonalLoop=1;jettySize=auto;html=1;entryX=0.444;entryY=-0.018;entryDx=0;entryDy=0;entryPerimeter=0;" parent="1" source="RCedNo-r4ZSikWVJdYWe-2" target="C-vyLk0tnHw3VtMMgP7b-23" edge="1">
          <mxGeometry relative="1" as="geometry" />
        </mxCell>
        <mxCell id="RCedNo-r4ZSikWVJdYWe-2" value="Edad" style="ellipse;whiteSpace=wrap;html=1;" parent="1" vertex="1">
          <mxGeometry x="110" width="120" height="80" as="geometry" />
        </mxCell>
      </root>
    </mxGraphModel>
  </diagram>
  <diagram id="8Q-y1PegGucAavjGRLf2" name="Page-2">
    <mxGraphModel dx="1848" dy="472" grid="1" gridSize="10" guides="1" tooltips="1" connect="1" arrows="1" fold="1" page="1" pageScale="1" pageWidth="827" pageHeight="1169" math="0" shadow="0">
      <root>
        <mxCell id="tcX6R0ZvQZngopu92sHK-0" />
        <mxCell id="tcX6R0ZvQZngopu92sHK-1" parent="tcX6R0ZvQZngopu92sHK-0" />
        <mxCell id="S5ZKTaVx5fnSKrGnuOgS-1" value="JEFE" style="rounded=1;arcSize=10;whiteSpace=wrap;html=1;align=center;" parent="tcX6R0ZvQZngopu92sHK-1" vertex="1">
          <mxGeometry x="370" y="90" width="100" height="40" as="geometry" />
        </mxCell>
        <mxCell id="S5ZKTaVx5fnSKrGnuOgS-2" value="EMPLEADO" style="rounded=1;arcSize=10;whiteSpace=wrap;html=1;align=center;" parent="tcX6R0ZvQZngopu92sHK-1" vertex="1">
          <mxGeometry x="620" y="90" width="100" height="40" as="geometry" />
        </mxCell>
        <mxCell id="S5ZKTaVx5fnSKrGnuOgS-4" value="GERENTE" style="rounded=1;arcSize=10;whiteSpace=wrap;html=1;align=center;" parent="tcX6R0ZvQZngopu92sHK-1" vertex="1">
          <mxGeometry x="90" y="90" width="100" height="40" as="geometry" />
        </mxCell>
        <mxCell id="S5ZKTaVx5fnSKrGnuOgS-7" value="" style="edgeStyle=orthogonalEdgeStyle;rounded=0;orthogonalLoop=1;jettySize=auto;html=1;" parent="tcX6R0ZvQZngopu92sHK-1" source="S5ZKTaVx5fnSKrGnuOgS-6" target="S5ZKTaVx5fnSKrGnuOgS-4" edge="1">
          <mxGeometry relative="1" as="geometry" />
        </mxCell>
        <mxCell id="S5ZKTaVx5fnSKrGnuOgS-6" value="Codigo" style="ellipse;whiteSpace=wrap;html=1;align=center;fontStyle=4;" parent="tcX6R0ZvQZngopu92sHK-1" vertex="1">
          <mxGeometry x="20" y="10" width="100" height="40" as="geometry" />
        </mxCell>
        <mxCell id="S5ZKTaVx5fnSKrGnuOgS-10" value="" style="edgeStyle=orthogonalEdgeStyle;rounded=0;orthogonalLoop=1;jettySize=auto;html=1;" parent="tcX6R0ZvQZngopu92sHK-1" source="S5ZKTaVx5fnSKrGnuOgS-8" target="S5ZKTaVx5fnSKrGnuOgS-1" edge="1">
          <mxGeometry relative="1" as="geometry" />
        </mxCell>
        <mxCell id="S5ZKTaVx5fnSKrGnuOgS-8" value="Codigo" style="ellipse;whiteSpace=wrap;html=1;align=center;fontStyle=4;" parent="tcX6R0ZvQZngopu92sHK-1" vertex="1">
          <mxGeometry x="314" y="10" width="100" height="40" as="geometry" />
        </mxCell>
        <mxCell id="S5ZKTaVx5fnSKrGnuOgS-11" value="" style="edgeStyle=orthogonalEdgeStyle;rounded=0;orthogonalLoop=1;jettySize=auto;html=1;" parent="tcX6R0ZvQZngopu92sHK-1" source="S5ZKTaVx5fnSKrGnuOgS-9" target="S5ZKTaVx5fnSKrGnuOgS-2" edge="1">
          <mxGeometry relative="1" as="geometry" />
        </mxCell>
        <mxCell id="S5ZKTaVx5fnSKrGnuOgS-9" value="Codigo" style="ellipse;whiteSpace=wrap;html=1;align=center;fontStyle=4;" parent="tcX6R0ZvQZngopu92sHK-1" vertex="1">
          <mxGeometry x="580" y="10" width="100" height="40" as="geometry" />
        </mxCell>
        <mxCell id="S5ZKTaVx5fnSKrGnuOgS-12" value="" style="edgeStyle=entityRelationEdgeStyle;fontSize=12;html=1;endArrow=ERmany;entryX=0;entryY=0.5;entryDx=0;entryDy=0;" parent="tcX6R0ZvQZngopu92sHK-1" source="S5ZKTaVx5fnSKrGnuOgS-1" target="S5ZKTaVx5fnSKrGnuOgS-2" edge="1">
          <mxGeometry width="100" height="100" relative="1" as="geometry">
            <mxPoint x="360" y="230" as="sourcePoint" />
            <mxPoint x="460" y="130" as="targetPoint" />
          </mxGeometry>
        </mxCell>
        <mxCell id="S5ZKTaVx5fnSKrGnuOgS-13" value="" style="edgeStyle=entityRelationEdgeStyle;fontSize=12;html=1;endArrow=ERmany;entryX=0;entryY=0.5;entryDx=0;entryDy=0;exitX=1;exitY=0.5;exitDx=0;exitDy=0;" parent="tcX6R0ZvQZngopu92sHK-1" source="S5ZKTaVx5fnSKrGnuOgS-4" target="S5ZKTaVx5fnSKrGnuOgS-1" edge="1">
          <mxGeometry width="100" height="100" relative="1" as="geometry">
            <mxPoint x="200" y="190" as="sourcePoint" />
            <mxPoint x="300" y="90" as="targetPoint" />
          </mxGeometry>
        </mxCell>
        <mxCell id="S5ZKTaVx5fnSKrGnuOgS-16" value="" style="edgeStyle=orthogonalEdgeStyle;rounded=0;orthogonalLoop=1;jettySize=auto;html=1;entryX=0.25;entryY=1;entryDx=0;entryDy=0;" parent="tcX6R0ZvQZngopu92sHK-1" source="S5ZKTaVx5fnSKrGnuOgS-14" target="S5ZKTaVx5fnSKrGnuOgS-2" edge="1">
          <mxGeometry relative="1" as="geometry" />
        </mxCell>
        <mxCell id="S5ZKTaVx5fnSKrGnuOgS-14" value="Rut" style="ellipse;whiteSpace=wrap;html=1;align=center;" parent="tcX6R0ZvQZngopu92sHK-1" vertex="1">
          <mxGeometry x="560" y="170" width="100" height="40" as="geometry" />
        </mxCell>
        <mxCell id="S5ZKTaVx5fnSKrGnuOgS-17" value="" style="edgeStyle=orthogonalEdgeStyle;rounded=0;orthogonalLoop=1;jettySize=auto;html=1;entryX=0.25;entryY=1;entryDx=0;entryDy=0;" parent="tcX6R0ZvQZngopu92sHK-1" source="S5ZKTaVx5fnSKrGnuOgS-15" target="S5ZKTaVx5fnSKrGnuOgS-1" edge="1">
          <mxGeometry relative="1" as="geometry" />
        </mxCell>
        <mxCell id="S5ZKTaVx5fnSKrGnuOgS-15" value="Rut" style="ellipse;whiteSpace=wrap;html=1;align=center;" parent="tcX6R0ZvQZngopu92sHK-1" vertex="1">
          <mxGeometry x="290" y="170" width="100" height="40" as="geometry" />
        </mxCell>
        <mxCell id="S5ZKTaVx5fnSKrGnuOgS-20" value="" style="edgeStyle=orthogonalEdgeStyle;rounded=0;orthogonalLoop=1;jettySize=auto;html=1;" parent="tcX6R0ZvQZngopu92sHK-1" source="S5ZKTaVx5fnSKrGnuOgS-18" target="S5ZKTaVx5fnSKrGnuOgS-1" edge="1">
          <mxGeometry relative="1" as="geometry" />
        </mxCell>
        <mxCell id="S5ZKTaVx5fnSKrGnuOgS-18" value="Nombre" style="ellipse;whiteSpace=wrap;html=1;align=center;" parent="tcX6R0ZvQZngopu92sHK-1" vertex="1">
          <mxGeometry x="420" y="170" width="100" height="40" as="geometry" />
        </mxCell>
        <mxCell id="S5ZKTaVx5fnSKrGnuOgS-21" style="edgeStyle=orthogonalEdgeStyle;rounded=0;orthogonalLoop=1;jettySize=auto;html=1;entryX=1;entryY=0.75;entryDx=0;entryDy=0;" parent="tcX6R0ZvQZngopu92sHK-1" source="S5ZKTaVx5fnSKrGnuOgS-19" target="S5ZKTaVx5fnSKrGnuOgS-2" edge="1">
          <mxGeometry relative="1" as="geometry" />
        </mxCell>
        <mxCell id="S5ZKTaVx5fnSKrGnuOgS-19" value="Nombre" style="ellipse;whiteSpace=wrap;html=1;align=center;" parent="tcX6R0ZvQZngopu92sHK-1" vertex="1">
          <mxGeometry x="710" y="170" width="100" height="40" as="geometry" />
        </mxCell>
        <mxCell id="S5ZKTaVx5fnSKrGnuOgS-29" style="edgeStyle=orthogonalEdgeStyle;rounded=0;orthogonalLoop=1;jettySize=auto;html=1;entryX=1;entryY=0.25;entryDx=0;entryDy=0;" parent="tcX6R0ZvQZngopu92sHK-1" source="S5ZKTaVx5fnSKrGnuOgS-22" target="S5ZKTaVx5fnSKrGnuOgS-1" edge="1">
          <mxGeometry relative="1" as="geometry" />
        </mxCell>
        <mxCell id="S5ZKTaVx5fnSKrGnuOgS-22" value="Direccion" style="ellipse;whiteSpace=wrap;html=1;align=center;" parent="tcX6R0ZvQZngopu92sHK-1" vertex="1">
          <mxGeometry x="460" y="40" width="100" height="40" as="geometry" />
        </mxCell>
        <mxCell id="S5ZKTaVx5fnSKrGnuOgS-31" style="edgeStyle=orthogonalEdgeStyle;rounded=0;orthogonalLoop=1;jettySize=auto;html=1;entryX=0.37;entryY=1.05;entryDx=0;entryDy=0;entryPerimeter=0;" parent="tcX6R0ZvQZngopu92sHK-1" source="S5ZKTaVx5fnSKrGnuOgS-23" target="S5ZKTaVx5fnSKrGnuOgS-1" edge="1">
          <mxGeometry relative="1" as="geometry" />
        </mxCell>
        <mxCell id="S5ZKTaVx5fnSKrGnuOgS-23" value="Estado civil" style="ellipse;whiteSpace=wrap;html=1;align=center;" parent="tcX6R0ZvQZngopu92sHK-1" vertex="1">
          <mxGeometry x="360" y="220" width="100" height="40" as="geometry" />
        </mxCell>
        <mxCell id="S5ZKTaVx5fnSKrGnuOgS-26" style="edgeStyle=orthogonalEdgeStyle;rounded=0;orthogonalLoop=1;jettySize=auto;html=1;exitX=0.5;exitY=0;exitDx=0;exitDy=0;entryX=0.63;entryY=1.025;entryDx=0;entryDy=0;entryPerimeter=0;" parent="tcX6R0ZvQZngopu92sHK-1" source="S5ZKTaVx5fnSKrGnuOgS-24" target="S5ZKTaVx5fnSKrGnuOgS-2" edge="1">
          <mxGeometry relative="1" as="geometry" />
        </mxCell>
        <mxCell id="S5ZKTaVx5fnSKrGnuOgS-24" value="Estado civil" style="ellipse;whiteSpace=wrap;html=1;align=center;" parent="tcX6R0ZvQZngopu92sHK-1" vertex="1">
          <mxGeometry x="640" y="220" width="100" height="40" as="geometry" />
        </mxCell>
        <mxCell id="S5ZKTaVx5fnSKrGnuOgS-28" style="edgeStyle=orthogonalEdgeStyle;rounded=0;orthogonalLoop=1;jettySize=auto;html=1;entryX=1;entryY=0.25;entryDx=0;entryDy=0;" parent="tcX6R0ZvQZngopu92sHK-1" source="S5ZKTaVx5fnSKrGnuOgS-25" target="S5ZKTaVx5fnSKrGnuOgS-2" edge="1">
          <mxGeometry relative="1" as="geometry" />
        </mxCell>
        <mxCell id="S5ZKTaVx5fnSKrGnuOgS-25" value="Direccion" style="ellipse;whiteSpace=wrap;html=1;align=center;" parent="tcX6R0ZvQZngopu92sHK-1" vertex="1">
          <mxGeometry x="710" y="20" width="100" height="40" as="geometry" />
        </mxCell>
        <mxCell id="L--9ynyiZbqoBA6ccLxZ-1" value="PACIENTE" style="rounded=1;arcSize=10;whiteSpace=wrap;html=1;align=center;" vertex="1" parent="tcX6R0ZvQZngopu92sHK-1">
          <mxGeometry x="131.5" y="467" width="100" height="40" as="geometry" />
        </mxCell>
        <mxCell id="L--9ynyiZbqoBA6ccLxZ-13" style="edgeStyle=orthogonalEdgeStyle;rounded=0;orthogonalLoop=1;jettySize=auto;html=1;entryX=0.25;entryY=0;entryDx=0;entryDy=0;exitX=1;exitY=1;exitDx=0;exitDy=0;" edge="1" parent="tcX6R0ZvQZngopu92sHK-1" source="L--9ynyiZbqoBA6ccLxZ-2" target="L--9ynyiZbqoBA6ccLxZ-1">
          <mxGeometry relative="1" as="geometry">
            <mxPoint x="81.5" y="436.9999999999999" as="sourcePoint" />
          </mxGeometry>
        </mxCell>
        <mxCell id="L--9ynyiZbqoBA6ccLxZ-2" value="Nombre" style="ellipse;whiteSpace=wrap;html=1;align=center;" vertex="1" parent="tcX6R0ZvQZngopu92sHK-1">
          <mxGeometry x="10" y="400" width="100" height="40" as="geometry" />
        </mxCell>
        <mxCell id="L--9ynyiZbqoBA6ccLxZ-19" style="edgeStyle=orthogonalEdgeStyle;rounded=0;orthogonalLoop=1;jettySize=auto;html=1;exitX=0;exitY=0;exitDx=0;exitDy=0;entryX=0.5;entryY=1;entryDx=0;entryDy=0;" edge="1" parent="tcX6R0ZvQZngopu92sHK-1" source="L--9ynyiZbqoBA6ccLxZ-4" target="L--9ynyiZbqoBA6ccLxZ-1">
          <mxGeometry relative="1" as="geometry" />
        </mxCell>
        <mxCell id="L--9ynyiZbqoBA6ccLxZ-4" value="Apellido" style="ellipse;whiteSpace=wrap;html=1;align=center;" vertex="1" parent="tcX6R0ZvQZngopu92sHK-1">
          <mxGeometry x="141.5" y="617" width="100" height="40" as="geometry" />
        </mxCell>
        <mxCell id="L--9ynyiZbqoBA6ccLxZ-18" style="edgeStyle=orthogonalEdgeStyle;rounded=0;orthogonalLoop=1;jettySize=auto;html=1;entryX=0.37;entryY=1.075;entryDx=0;entryDy=0;entryPerimeter=0;" edge="1" parent="tcX6R0ZvQZngopu92sHK-1" source="L--9ynyiZbqoBA6ccLxZ-5" target="L--9ynyiZbqoBA6ccLxZ-1">
          <mxGeometry relative="1" as="geometry" />
        </mxCell>
        <mxCell id="L--9ynyiZbqoBA6ccLxZ-5" value="Direccion" style="ellipse;whiteSpace=wrap;html=1;align=center;" vertex="1" parent="tcX6R0ZvQZngopu92sHK-1">
          <mxGeometry x="41.5" y="597" width="100" height="40" as="geometry" />
        </mxCell>
        <mxCell id="L--9ynyiZbqoBA6ccLxZ-21" style="edgeStyle=orthogonalEdgeStyle;rounded=0;orthogonalLoop=1;jettySize=auto;html=1;entryX=0.82;entryY=1.075;entryDx=0;entryDy=0;entryPerimeter=0;" edge="1" parent="tcX6R0ZvQZngopu92sHK-1" source="L--9ynyiZbqoBA6ccLxZ-6" target="L--9ynyiZbqoBA6ccLxZ-1">
          <mxGeometry relative="1" as="geometry" />
        </mxCell>
        <mxCell id="L--9ynyiZbqoBA6ccLxZ-6" value="Poblacion" style="ellipse;whiteSpace=wrap;html=1;align=center;" vertex="1" parent="tcX6R0ZvQZngopu92sHK-1">
          <mxGeometry x="261.5" y="537" width="100" height="40" as="geometry" />
        </mxCell>
        <mxCell id="L--9ynyiZbqoBA6ccLxZ-22" style="edgeStyle=orthogonalEdgeStyle;rounded=0;orthogonalLoop=1;jettySize=auto;html=1;entryX=0.83;entryY=0;entryDx=0;entryDy=0;entryPerimeter=0;" edge="1" parent="tcX6R0ZvQZngopu92sHK-1" source="L--9ynyiZbqoBA6ccLxZ-7" target="L--9ynyiZbqoBA6ccLxZ-1">
          <mxGeometry relative="1" as="geometry">
            <mxPoint x="241.49999999999727" y="426.9999999999999" as="sourcePoint" />
          </mxGeometry>
        </mxCell>
        <mxCell id="L--9ynyiZbqoBA6ccLxZ-7" value="Provincia" style="ellipse;whiteSpace=wrap;html=1;align=center;" vertex="1" parent="tcX6R0ZvQZngopu92sHK-1">
          <mxGeometry x="241.5" y="400" width="100" height="40" as="geometry" />
        </mxCell>
        <mxCell id="L--9ynyiZbqoBA6ccLxZ-20" style="edgeStyle=orthogonalEdgeStyle;rounded=0;orthogonalLoop=1;jettySize=auto;html=1;entryX=0.68;entryY=1.075;entryDx=0;entryDy=0;entryPerimeter=0;" edge="1" parent="tcX6R0ZvQZngopu92sHK-1" source="L--9ynyiZbqoBA6ccLxZ-8" target="L--9ynyiZbqoBA6ccLxZ-1">
          <mxGeometry relative="1" as="geometry" />
        </mxCell>
        <mxCell id="L--9ynyiZbqoBA6ccLxZ-8" value="Codigo postal" style="ellipse;whiteSpace=wrap;html=1;align=center;" vertex="1" parent="tcX6R0ZvQZngopu92sHK-1">
          <mxGeometry x="171.5" y="577" width="100" height="40" as="geometry" />
        </mxCell>
        <mxCell id="L--9ynyiZbqoBA6ccLxZ-17" style="edgeStyle=orthogonalEdgeStyle;rounded=0;orthogonalLoop=1;jettySize=auto;html=1;exitX=1;exitY=0.5;exitDx=0;exitDy=0;entryX=0.14;entryY=1.025;entryDx=0;entryDy=0;entryPerimeter=0;" edge="1" parent="tcX6R0ZvQZngopu92sHK-1" source="L--9ynyiZbqoBA6ccLxZ-9" target="L--9ynyiZbqoBA6ccLxZ-1">
          <mxGeometry relative="1" as="geometry">
            <mxPoint x="86.64552060383153" y="522.7744321365443" as="sourcePoint" />
          </mxGeometry>
        </mxCell>
        <mxCell id="L--9ynyiZbqoBA6ccLxZ-9" value="Telefono" style="ellipse;whiteSpace=wrap;html=1;align=center;" vertex="1" parent="tcX6R0ZvQZngopu92sHK-1">
          <mxGeometry x="-20" y="507" width="100" height="40" as="geometry" />
        </mxCell>
        <mxCell id="L--9ynyiZbqoBA6ccLxZ-15" value="" style="edgeStyle=orthogonalEdgeStyle;rounded=0;orthogonalLoop=1;jettySize=auto;html=1;" edge="1" parent="tcX6R0ZvQZngopu92sHK-1" source="L--9ynyiZbqoBA6ccLxZ-10" target="L--9ynyiZbqoBA6ccLxZ-1">
          <mxGeometry relative="1" as="geometry">
            <mxPoint x="101.5" y="477.0000000000001" as="sourcePoint" />
          </mxGeometry>
        </mxCell>
        <mxCell id="L--9ynyiZbqoBA6ccLxZ-10" value="Fecha de nacimiento" style="ellipse;whiteSpace=wrap;html=1;align=center;" vertex="1" parent="tcX6R0ZvQZngopu92sHK-1">
          <mxGeometry y="457" width="100" height="40" as="geometry" />
        </mxCell>
        <mxCell id="L--9ynyiZbqoBA6ccLxZ-12" value="" style="edgeStyle=orthogonalEdgeStyle;rounded=0;orthogonalLoop=1;jettySize=auto;html=1;exitX=0.5;exitY=1;exitDx=0;exitDy=0;" edge="1" parent="tcX6R0ZvQZngopu92sHK-1" source="L--9ynyiZbqoBA6ccLxZ-11" target="L--9ynyiZbqoBA6ccLxZ-1">
          <mxGeometry relative="1" as="geometry">
            <mxPoint x="181.5" y="436.9999999999999" as="sourcePoint" />
          </mxGeometry>
        </mxCell>
        <mxCell id="L--9ynyiZbqoBA6ccLxZ-11" value="Codigo" style="ellipse;whiteSpace=wrap;html=1;align=center;fontStyle=4;" vertex="1" parent="tcX6R0ZvQZngopu92sHK-1">
          <mxGeometry x="131.5" y="377" width="100" height="40" as="geometry" />
        </mxCell>
        <mxCell id="L--9ynyiZbqoBA6ccLxZ-24" value="INGRESO" style="shape=rhombus;perimeter=rhombusPerimeter;whiteSpace=wrap;html=1;align=center;" vertex="1" parent="tcX6R0ZvQZngopu92sHK-1">
          <mxGeometry x="391.5" y="507" width="120" height="60" as="geometry" />
        </mxCell>
        <mxCell id="L--9ynyiZbqoBA6ccLxZ-26" value="" style="endArrow=none;html=1;rounded=0;entryX=0;entryY=0.5;entryDx=0;entryDy=0;" edge="1" parent="tcX6R0ZvQZngopu92sHK-1" target="L--9ynyiZbqoBA6ccLxZ-24">
          <mxGeometry relative="1" as="geometry">
            <mxPoint x="231.5" y="487" as="sourcePoint" />
            <mxPoint x="331.5" y="487" as="targetPoint" />
          </mxGeometry>
        </mxCell>
        <mxCell id="L--9ynyiZbqoBA6ccLxZ-27" value="1" style="resizable=0;html=1;align=right;verticalAlign=bottom;" connectable="0" vertex="1" parent="L--9ynyiZbqoBA6ccLxZ-26">
          <mxGeometry x="1" relative="1" as="geometry" />
        </mxCell>
        <mxCell id="L--9ynyiZbqoBA6ccLxZ-28" value="" style="endArrow=none;html=1;rounded=0;dashed=1;dashPattern=1 2;exitX=1;exitY=0.25;exitDx=0;exitDy=0;entryX=0.5;entryY=0;entryDx=0;entryDy=0;" edge="1" parent="tcX6R0ZvQZngopu92sHK-1" source="L--9ynyiZbqoBA6ccLxZ-1" target="L--9ynyiZbqoBA6ccLxZ-24">
          <mxGeometry relative="1" as="geometry">
            <mxPoint x="241.5" y="467" as="sourcePoint" />
            <mxPoint x="401.5" y="467" as="targetPoint" />
          </mxGeometry>
        </mxCell>
        <mxCell id="L--9ynyiZbqoBA6ccLxZ-29" value="1" style="resizable=0;html=1;align=right;verticalAlign=bottom;" connectable="0" vertex="1" parent="L--9ynyiZbqoBA6ccLxZ-28">
          <mxGeometry x="1" relative="1" as="geometry" />
        </mxCell>
        <mxCell id="L--9ynyiZbqoBA6ccLxZ-30" value="PACIENTE" style="rounded=1;arcSize=10;whiteSpace=wrap;html=1;align=center;" vertex="1" parent="tcX6R0ZvQZngopu92sHK-1">
          <mxGeometry x="391.5" y="417" width="100" height="40" as="geometry" />
        </mxCell>
        <mxCell id="L--9ynyiZbqoBA6ccLxZ-33" value="" style="endArrow=none;html=1;rounded=0;entryX=0;entryY=0.5;entryDx=0;entryDy=0;exitX=1;exitY=0;exitDx=0;exitDy=0;" edge="1" parent="tcX6R0ZvQZngopu92sHK-1" source="L--9ynyiZbqoBA6ccLxZ-1" target="L--9ynyiZbqoBA6ccLxZ-30">
          <mxGeometry relative="1" as="geometry">
            <mxPoint x="451.5" y="487" as="sourcePoint" />
            <mxPoint x="611.5" y="487" as="targetPoint" />
          </mxGeometry>
        </mxCell>
        <mxCell id="L--9ynyiZbqoBA6ccLxZ-34" value="1" style="resizable=0;html=1;align=right;verticalAlign=bottom;" connectable="0" vertex="1" parent="L--9ynyiZbqoBA6ccLxZ-33">
          <mxGeometry x="1" relative="1" as="geometry" />
        </mxCell>
        <mxCell id="L--9ynyiZbqoBA6ccLxZ-35" value="MEDICO" style="rounded=1;arcSize=10;whiteSpace=wrap;html=1;align=center;" vertex="1" parent="tcX6R0ZvQZngopu92sHK-1">
          <mxGeometry x="631.5" y="477" width="100" height="40" as="geometry" />
        </mxCell>
        <mxCell id="L--9ynyiZbqoBA6ccLxZ-42" style="edgeStyle=orthogonalEdgeStyle;rounded=0;orthogonalLoop=1;jettySize=auto;html=1;entryX=0.631;entryY=-0.079;entryDx=0;entryDy=0;entryPerimeter=0;exitX=0;exitY=1;exitDx=0;exitDy=0;" edge="1" parent="tcX6R0ZvQZngopu92sHK-1" source="L--9ynyiZbqoBA6ccLxZ-37" target="L--9ynyiZbqoBA6ccLxZ-35">
          <mxGeometry relative="1" as="geometry">
            <mxPoint x="751.5" y="436.9999999999999" as="sourcePoint" />
          </mxGeometry>
        </mxCell>
        <mxCell id="L--9ynyiZbqoBA6ccLxZ-37" value="Nombre" style="ellipse;whiteSpace=wrap;html=1;align=center;" vertex="1" parent="tcX6R0ZvQZngopu92sHK-1">
          <mxGeometry x="720" y="390" width="100" height="40" as="geometry" />
        </mxCell>
        <mxCell id="L--9ynyiZbqoBA6ccLxZ-41" style="edgeStyle=orthogonalEdgeStyle;rounded=0;orthogonalLoop=1;jettySize=auto;html=1;entryX=0.25;entryY=0;entryDx=0;entryDy=0;exitX=0.5;exitY=1;exitDx=0;exitDy=0;" edge="1" parent="tcX6R0ZvQZngopu92sHK-1" source="L--9ynyiZbqoBA6ccLxZ-38" target="L--9ynyiZbqoBA6ccLxZ-35">
          <mxGeometry relative="1" as="geometry">
            <mxPoint x="621.5" y="446.9999999999999" as="sourcePoint" />
          </mxGeometry>
        </mxCell>
        <mxCell id="L--9ynyiZbqoBA6ccLxZ-38" value="Telefono" style="ellipse;whiteSpace=wrap;html=1;align=center;" vertex="1" parent="tcX6R0ZvQZngopu92sHK-1">
          <mxGeometry x="570" y="390" width="100" height="40" as="geometry" />
        </mxCell>
        <mxCell id="L--9ynyiZbqoBA6ccLxZ-40" value="" style="edgeStyle=orthogonalEdgeStyle;rounded=0;orthogonalLoop=1;jettySize=auto;html=1;" edge="1" parent="tcX6R0ZvQZngopu92sHK-1" source="L--9ynyiZbqoBA6ccLxZ-39" target="L--9ynyiZbqoBA6ccLxZ-35">
          <mxGeometry relative="1" as="geometry" />
        </mxCell>
        <mxCell id="L--9ynyiZbqoBA6ccLxZ-39" value="Especialidad" style="ellipse;whiteSpace=wrap;html=1;align=center;" vertex="1" parent="tcX6R0ZvQZngopu92sHK-1">
          <mxGeometry x="710" y="547" width="100" height="40" as="geometry" />
        </mxCell>
        <mxCell id="L--9ynyiZbqoBA6ccLxZ-43" value="" style="endArrow=none;html=1;rounded=0;entryX=1;entryY=0.5;entryDx=0;entryDy=0;exitX=0;exitY=0.25;exitDx=0;exitDy=0;" edge="1" parent="tcX6R0ZvQZngopu92sHK-1" source="L--9ynyiZbqoBA6ccLxZ-35" target="L--9ynyiZbqoBA6ccLxZ-30">
          <mxGeometry relative="1" as="geometry">
            <mxPoint x="461.5" y="417" as="sourcePoint" />
            <mxPoint x="621.5" y="417" as="targetPoint" />
          </mxGeometry>
        </mxCell>
        <mxCell id="L--9ynyiZbqoBA6ccLxZ-44" value="N" style="resizable=0;html=1;align=right;verticalAlign=bottom;" connectable="0" vertex="1" parent="L--9ynyiZbqoBA6ccLxZ-43">
          <mxGeometry x="1" relative="1" as="geometry" />
        </mxCell>
        <mxCell id="L--9ynyiZbqoBA6ccLxZ-45" value="" style="endArrow=none;html=1;rounded=0;entryX=0.5;entryY=1;entryDx=0;entryDy=0;" edge="1" parent="tcX6R0ZvQZngopu92sHK-1" target="L--9ynyiZbqoBA6ccLxZ-24">
          <mxGeometry relative="1" as="geometry">
            <mxPoint x="451.5" y="657" as="sourcePoint" />
            <mxPoint x="621.5" y="607" as="targetPoint" />
          </mxGeometry>
        </mxCell>
        <mxCell id="L--9ynyiZbqoBA6ccLxZ-46" value="N" style="resizable=0;html=1;align=right;verticalAlign=bottom;" connectable="0" vertex="1" parent="L--9ynyiZbqoBA6ccLxZ-45">
          <mxGeometry x="1" relative="1" as="geometry" />
        </mxCell>
        <mxCell id="L--9ynyiZbqoBA6ccLxZ-47" value="CLINICA" style="rounded=1;arcSize=10;whiteSpace=wrap;html=1;align=center;" vertex="1" parent="tcX6R0ZvQZngopu92sHK-1">
          <mxGeometry x="401.5" y="657" width="100" height="40" as="geometry" />
        </mxCell>
        <mxCell id="L--9ynyiZbqoBA6ccLxZ-57" style="edgeStyle=orthogonalEdgeStyle;rounded=0;orthogonalLoop=1;jettySize=auto;html=1;entryX=0;entryY=0.5;entryDx=0;entryDy=0;" edge="1" parent="tcX6R0ZvQZngopu92sHK-1" source="L--9ynyiZbqoBA6ccLxZ-51" target="L--9ynyiZbqoBA6ccLxZ-47">
          <mxGeometry relative="1" as="geometry" />
        </mxCell>
        <mxCell id="L--9ynyiZbqoBA6ccLxZ-51" value="N° Habitacion" style="ellipse;whiteSpace=wrap;html=1;align=center;" vertex="1" parent="tcX6R0ZvQZngopu92sHK-1">
          <mxGeometry x="221.5" y="692" width="100" height="40" as="geometry" />
        </mxCell>
        <mxCell id="L--9ynyiZbqoBA6ccLxZ-67" value="" style="edgeStyle=orthogonalEdgeStyle;rounded=0;orthogonalLoop=1;jettySize=auto;html=1;" edge="1" parent="tcX6R0ZvQZngopu92sHK-1" source="L--9ynyiZbqoBA6ccLxZ-52" target="L--9ynyiZbqoBA6ccLxZ-47">
          <mxGeometry relative="1" as="geometry" />
        </mxCell>
        <mxCell id="L--9ynyiZbqoBA6ccLxZ-52" value="Cama" style="ellipse;whiteSpace=wrap;html=1;align=center;" vertex="1" parent="tcX6R0ZvQZngopu92sHK-1">
          <mxGeometry x="361.5" y="752" width="100" height="40" as="geometry" />
        </mxCell>
        <mxCell id="L--9ynyiZbqoBA6ccLxZ-60" style="edgeStyle=orthogonalEdgeStyle;rounded=0;orthogonalLoop=1;jettySize=auto;html=1;entryX=0.861;entryY=1.097;entryDx=0;entryDy=0;entryPerimeter=0;exitX=0;exitY=0.5;exitDx=0;exitDy=0;" edge="1" parent="tcX6R0ZvQZngopu92sHK-1" source="L--9ynyiZbqoBA6ccLxZ-61" target="L--9ynyiZbqoBA6ccLxZ-47">
          <mxGeometry relative="1" as="geometry">
            <mxPoint x="541.5002162634435" y="752.0588235294117" as="sourcePoint" />
          </mxGeometry>
        </mxCell>
        <mxCell id="L--9ynyiZbqoBA6ccLxZ-56" style="edgeStyle=orthogonalEdgeStyle;rounded=0;orthogonalLoop=1;jettySize=auto;html=1;" edge="1" parent="tcX6R0ZvQZngopu92sHK-1" source="L--9ynyiZbqoBA6ccLxZ-54">
          <mxGeometry relative="1" as="geometry">
            <mxPoint x="480" y="552" as="targetPoint" />
          </mxGeometry>
        </mxCell>
        <mxCell id="L--9ynyiZbqoBA6ccLxZ-54" value="Fecha" style="ellipse;whiteSpace=wrap;html=1;align=center;" vertex="1" parent="tcX6R0ZvQZngopu92sHK-1">
          <mxGeometry x="560" y="567" width="100" height="40" as="geometry" />
        </mxCell>
        <mxCell id="L--9ynyiZbqoBA6ccLxZ-61" value="Codigo" style="ellipse;whiteSpace=wrap;html=1;align=center;fontStyle=4;" vertex="1" parent="tcX6R0ZvQZngopu92sHK-1">
          <mxGeometry x="531.5" y="712" width="100" height="40" as="geometry" />
        </mxCell>
        <mxCell id="L--9ynyiZbqoBA6ccLxZ-62" value="Codigo" style="ellipse;whiteSpace=wrap;html=1;align=center;fontStyle=4;" vertex="1" parent="tcX6R0ZvQZngopu92sHK-1">
          <mxGeometry x="727" y="450" width="100" height="40" as="geometry" />
        </mxCell>
        <mxCell id="L--9ynyiZbqoBA6ccLxZ-64" value="&lt;font style=&quot;font-size: 36px&quot;&gt;N°6&lt;/font&gt;" style="text;html=1;strokeColor=none;fillColor=none;align=center;verticalAlign=middle;whiteSpace=wrap;rounded=0;" vertex="1" parent="tcX6R0ZvQZngopu92sHK-1">
          <mxGeometry x="20" y="308" width="80" height="50" as="geometry" />
        </mxCell>
        <mxCell id="L--9ynyiZbqoBA6ccLxZ-65" value="&lt;font style=&quot;font-size: 36px&quot;&gt;N°5&lt;/font&gt;" style="text;html=1;strokeColor=none;fillColor=none;align=center;verticalAlign=middle;whiteSpace=wrap;rounded=0;" vertex="1" parent="tcX6R0ZvQZngopu92sHK-1">
          <mxGeometry x="10" y="140" width="80" height="50" as="geometry" />
        </mxCell>
        <mxCell id="L--9ynyiZbqoBA6ccLxZ-66" value="&lt;font style=&quot;font-size: 24px&quot;&gt;Actividad&lt;/font&gt;" style="text;html=1;strokeColor=none;fillColor=none;align=center;verticalAlign=middle;whiteSpace=wrap;rounded=0;" vertex="1" parent="tcX6R0ZvQZngopu92sHK-1">
          <mxGeometry x="370" y="323" width="80" height="20" as="geometry" />
        </mxCell>
      </root>
    </mxGraphModel>
  </diagram>
</mxfile>
